<?xml version="1.0" encoding="UTF-8"?>
<svg width="762px" height="354px" viewBox="0 0 762 354" version="1.1" xmlns="http://www.w3.org/2000/svg" xmlns:xlink="http://www.w3.org/1999/xlink">
    <g stroke="none" stroke-width="1" fill="none" fill-rule="evenodd">
        <path d="M263.096957,255.154297 C249.687289,279.663253 238.922778,293.497474 225.089368,313.849826 C211.255957,334.202177 180.296182,353.627375 153.396023,353.627375 C126.495865,353.627375 100.498613,344.226522 84.0603972,321.590347 C73.1015866,306.499563 58.0512147,274.303968 38.9092814,225.00356 L0,126.918087 L51.5118752,126.918087 C66.118876,126.918087 90.7191012,139.699622 97.8356466,147.234031 C104.952192,154.76844 114.534758,166.879143 123.718445,193.774533 C132.902133,220.669922 141.672684,237.913284 148.106744,243.510841 C154.540804,249.108398 162.228657,252.342424 173.358116,243.510841 C185.56248,233.826287 200.132328,206.540903 207.728629,195.74305 C227.483838,164.817482 244.994299,144.982505 260.260014,136.238118 C274.383578,127.999512 281.401644,123.865466 301.04059,123.865466 C323.366626,123.865466 346.565287,129.182859 357.792269,138.27832 C371.861931,149.676758 384.330355,171.81543 395.197543,204.694336 C404.537387,228.55775 410.810498,241.496585 414.016879,243.510841 C418.826449,246.532227 423.099879,247.795929 428.125277,243.510841 C433.587304,238.853446 437.197855,225.573847 437.40848,225.00356 C441.554357,213.778216 458.813656,159.066797 491.63309,56.1210937 C498.261996,34.280599 506.553337,19.8141276 516.507113,12.7216797 C531.437777,2.08300781 542.121371,0 554.143832,0 L617.227816,0 C590.708102,79.814826 577.21801,120.415165 576.757539,121.801017 C576.297068,123.18687 575.836597,124.572722 575.376126,125.958574 C575.094297,129.605196 576.846943,130.827664 580.634066,129.625977 C581.16182,129.458516 582.899211,128.774734 585.846239,127.574631 C592.299072,124.626834 599.201821,120.419825 617.227816,116.028283 C640.011996,110.477539 689.88309,108.502252 712.872347,123.390286 C735.861605,138.27832 751.769808,153.852539 759.795199,192.425781 C762.995069,213.902995 761.007764,237.088216 753.833285,261.981445 C746.658806,286.874674 736.656466,318.203786 725.475863,351.113281 C705.977382,351.113281 689.478033,351.113281 675.977816,351.113281 C647.720004,351.113281 640.333925,330.101814 647.815707,304.375977 C651.994404,290.007678 656.761331,272.564319 662.116488,252.045898 C667.052686,229.144206 664.250277,212.236979 653.709262,201.324219 C637.897738,184.955078 610.118441,189.185547 594.995394,192.425781 C579.872347,195.666016 548.299105,212.357422 535.412387,250.066406 L515.254568,306.607656 C497.591097,340.898438 485.69266,353.627375 428.125277,353.627375 C370.557894,353.627375 361.509066,343.737305 341.032504,304.375977 L323.955355,262.197266 C323.891291,262.038886 333.085937,285.300781 323.744333,261.663309 C314.402729,238.025836 312.46306,218.467617 296.303988,218.467617 C280.144916,218.467617 276.506625,230.645341 263.096957,255.154297 Z" fill="#6C6C6C"></path>
    </g>
</svg>